<svg version="1.1" id="Layer_1" xmlns="http://www.w3.org/2000/svg" xmlns:xlink="http://www.w3.org/1999/xlink" x="0px" y="0px"
	 width="100%" viewBox="0 0 275 275" enable-background="new 0 0 275 275" xml:space="preserve">
<path fill="#fff" opacity="1.000000" stroke="none" 
	d="
M161.000000,276.000000 
	C107.333336,276.000000 54.166668,276.000000 1.000000,276.000000 
	C1.000000,184.333328 1.000000,92.666664 1.000000,1.000000 
	C92.666664,1.000000 184.333328,1.000000 276.000000,1.000000 
	C276.000000,92.666664 276.000000,184.333328 276.000000,276.000000 
	C237.833328,276.000000 199.666672,276.000000 161.000000,276.000000 
M25.998713,87.996819 
	C25.998713,87.996819 26.011393,88.039993 25.395069,88.117050 
	C24.680717,88.770805 23.966366,89.424561 22.655346,90.145767 
	C22.446199,90.465324 22.237053,90.784882 21.527670,91.169540 
	C21.385130,91.454514 21.242590,91.739479 21.025452,92.017136 
	C21.025452,92.017136 21.034286,92.091568 20.401190,92.263466 
	C19.611214,93.513397 18.821239,94.763329 17.996380,96.001541 
	C17.996380,96.001541 18.015060,96.033440 17.407124,96.251007 
	C16.936165,97.166710 16.465206,98.082420 15.434099,99.066284 
	C15.372476,99.381889 15.310851,99.697495 15.143439,100.754761 
	C14.865362,102.890045 14.587285,105.025322 14.129972,107.886925 
	C14.187239,108.877518 14.244505,109.868103 14.111170,111.584366 
	C15.490520,115.596115 16.869871,119.607872 18.066761,124.339363 
	C19.715631,126.745926 21.242401,129.248260 23.039110,131.538849 
	C26.643545,136.134109 30.395445,140.613678 34.159557,145.770645 
	C34.218319,146.184067 34.277081,146.597473 34.144386,147.659973 
	C34.197601,148.103485 34.250816,148.546982 34.127110,149.836090 
	C34.103958,151.563400 34.080807,153.290695 33.368553,155.067657 
	C32.908146,155.058868 32.447739,155.050079 31.671486,154.366165 
	C29.107643,153.591248 26.543800,152.816330 23.998323,151.997589 
	C23.998323,151.997589 23.957590,152.022171 23.694880,151.345825 
	C22.083025,150.428665 20.471170,149.511490 18.188250,148.212479 
	C15.662798,154.496475 13.371248,160.198486 11.077901,166.596603 
	C15.368542,170.747116 19.659184,174.897629 23.968971,179.762497 
	C24.914587,180.914185 25.860203,182.065857 26.951799,183.883560 
	C29.202288,186.578629 31.452778,189.273712 34.043854,192.854416 
	C34.050102,201.875641 34.056355,210.896881 33.889252,220.640503 
	C35.923458,223.103012 37.957664,225.565536 40.002079,227.998001 
	C40.002079,227.998001 39.972107,228.008591 40.036495,228.701492 
	C41.673031,230.816879 43.309563,232.932266 44.997364,235.000000 
	C44.997364,235.000000 44.952950,235.053116 45.210945,235.618286 
	C46.148155,236.395615 47.085365,237.172958 48.956242,237.990387 
	C72.747589,237.995590 96.538933,238.005814 120.330284,238.004822 
	C159.594284,238.003189 198.858353,238.016159 238.122086,237.908432 
	C239.690384,237.904114 241.255478,236.725464 242.942108,235.531006 
	C242.974030,235.341797 243.005936,235.152588 243.794464,234.555115 
	C243.846802,220.389160 243.899124,206.223221 244.610825,191.965256 
	C252.468674,191.639084 260.335388,191.438263 268.177094,190.883820 
	C269.797546,190.769241 272.776825,188.928421 272.677216,188.575684 
	C271.198639,183.338760 273.846863,177.215866 269.219208,172.658005 
	C263.690338,167.212494 258.300934,161.625320 252.154755,155.723892 
	C250.128922,155.230179 248.103088,154.736465 245.485214,153.987854 
	C245.285370,154.066788 245.085541,154.145706 244.387573,154.189972 
	C244.387573,154.189972 243.892761,154.123199 243.952316,153.169769 
	C243.909668,139.443817 243.867020,125.717873 243.970139,111.066162 
	C243.952499,100.744751 243.934845,90.423332 243.980789,79.161423 
	C244.090500,72.070648 245.016556,64.931992 238.934662,59.216354 
	C234.860580,55.387630 231.458008,50.844364 227.535568,45.958370 
	C223.408554,42.354637 218.567108,44.659477 213.365524,44.147549 
	C212.904678,44.205681 212.443817,44.263809 211.504837,44.143909 
	C211.345108,44.202328 211.185379,44.260746 210.227219,44.140636 
	C209.143250,44.200943 208.059296,44.261250 206.168137,44.129673 
	C204.792770,44.192780 203.417419,44.255890 201.150345,44.134697 
	C198.426361,44.196339 195.702362,44.257977 192.341568,44.125702 
	C191.907639,44.191689 191.473724,44.257679 190.358795,44.148094 
	C189.897568,44.207512 189.436356,44.266926 188.255066,44.130245 
	C187.517639,44.195652 186.780212,44.261059 185.142258,44.146862 
	C182.087021,44.205761 179.031769,44.264660 175.340378,44.127548 
	C174.906235,44.191681 174.472092,44.255814 173.114014,44.143753 
	C168.067780,44.202518 163.021545,44.261288 157.125595,44.122475 
	C155.098038,44.188236 153.070465,44.253998 150.148254,44.149982 
	C147.423447,44.208424 144.698654,44.266869 141.089798,44.125416 
	C138.074600,44.190125 135.059418,44.254833 131.212006,44.141151 
	C129.799957,44.199997 128.387909,44.258839 126.254913,44.124752 
	C125.517342,44.189720 124.779770,44.254688 123.285797,44.141544 
	C122.515694,44.200882 121.745583,44.260220 120.254974,44.124912 
	C119.517380,44.189842 118.779785,44.254768 117.240120,44.141556 
	C116.151299,44.201809 115.062469,44.262058 113.088753,44.127243 
	C110.074562,44.194054 107.060364,44.260864 103.120171,44.149487 
	C97.737587,44.208870 92.354996,44.268253 86.057678,44.129791 
	C70.561150,44.121521 55.064533,44.088230 39.568245,44.144524 
	C38.054745,44.150021 36.543251,44.707436 34.997398,44.999794 
	C34.997398,44.999794 35.006939,45.032448 34.523224,45.138760 
	C34.523224,45.138760 34.179398,45.495331 34.179398,45.495331 
	C34.179398,45.495331 34.336220,45.965221 34.157955,46.798035 
	C34.216179,48.211128 34.274399,49.624218 34.138802,51.819866 
	C34.207584,52.886719 34.276363,53.953571 34.162022,55.938854 
	C34.135071,65.300476 34.108120,74.662094 33.404556,84.136528 
	C32.279652,84.760254 31.154749,85.383980 29.505079,86.091606 
	C29.340857,86.158020 29.176634,86.224442 28.395233,86.166168 
	C27.610491,86.781502 26.825747,87.396835 25.998713,87.996819 
z"/>
<path fill="#093934" opacity="1.000000" stroke="none" 
	d="
M252.851135,156.099518 
	C258.300934,161.625320 263.690338,167.212494 269.219208,172.658005 
	C273.846863,177.215866 271.198639,183.338760 272.677216,188.575684 
	C272.776825,188.928421 269.797546,190.769241 268.177094,190.883820 
	C260.335388,191.438263 252.468674,191.639084 243.928940,192.244873 
	C243.177307,206.670776 243.107559,220.817093 243.037811,234.963394 
	C243.005936,235.152588 242.974030,235.341797 242.701904,235.790222 
	C242.461716,236.049423 242.098526,236.011826 241.619324,236.006348 
	C176.758148,235.993164 112.376167,235.985458 47.775280,235.724274 
	C46.688568,235.331573 45.820759,235.192337 44.952950,235.053116 
	C44.952950,235.053116 44.997364,235.000000 45.000195,234.682159 
	C45.797276,230.289627 42.937374,229.107407 39.972107,228.008591 
	C39.972107,228.008591 40.002079,227.998001 39.950188,227.622498 
	C39.601036,225.172424 39.303772,223.097839 39.444115,220.938385 
	C42.255169,220.924454 44.628620,220.995422 47.280357,221.333221 
	C50.037975,221.425064 52.517311,221.250061 55.448475,220.990356 
	C59.267956,220.960480 62.635601,221.015289 66.310493,221.349533 
	C72.743942,221.444550 78.870148,221.260132 85.407761,220.991089 
	C87.213654,220.957977 88.608147,221.009506 90.308533,221.341949 
	C96.408371,221.438293 102.202316,221.253693 108.457321,220.981567 
	C114.612755,220.945953 120.307129,220.997864 126.255310,221.311783 
	C128.338974,221.398453 130.168808,221.223114 132.421402,220.962158 
	C134.563751,220.939697 136.283371,221.002884 138.270203,221.330414 
	C140.690689,221.417679 142.843918,221.240585 145.441132,220.978912 
	C148.591492,220.956726 151.297852,221.019135 154.273590,221.342468 
	C156.694199,221.427902 158.845444,221.252396 161.367737,220.993210 
	C162.493378,220.964142 163.247925,221.018753 164.221588,221.317886 
	C165.626404,221.398987 166.812119,221.235550 168.367645,220.988251 
	C169.489609,220.958359 170.241760,221.012329 171.076263,221.425476 
	C173.332123,223.367493 175.427689,224.317535 177.375244,220.979523 
	C178.497604,220.951233 179.249985,221.007568 180.191925,221.299957 
	C181.253525,221.378784 182.125549,221.221588 183.459534,220.978516 
	C192.615646,220.954987 201.309814,221.017334 210.223236,221.323349 
	C211.627090,221.403564 212.811691,221.240112 214.434113,220.992020 
	C217.246094,220.957947 219.620239,221.008530 222.038712,221.348969 
	C222.403732,221.947342 222.724442,222.255829 223.045135,222.564331 
	C223.364609,222.062531 223.684097,221.560745 224.413147,220.964905 
	C225.453857,218.925003 226.084976,216.979156 227.011490,214.873917 
	C227.114319,212.464417 226.921753,210.214325 226.596771,207.516907 
	C226.515396,200.723969 226.566422,194.378357 226.926880,187.886902 
	C227.025604,185.483017 226.814880,183.224976 226.432236,180.554382 
	C223.619522,179.612793 220.978729,179.083755 217.796448,178.446228 
	C217.796448,182.735092 217.796448,185.874100 217.618164,189.114136 
	C217.227951,189.396164 217.072906,189.617096 216.561584,189.911713 
	C213.152878,190.543777 211.384583,189.483047 209.908203,186.622650 
	C208.603271,184.094421 206.195831,182.135269 204.275177,179.924850 
	C203.174622,182.000732 202.879196,183.340927 203.071640,184.606964 
	C203.757538,189.119583 201.822327,190.704010 197.491318,190.063507 
	C196.187622,189.870697 194.810028,189.882782 193.502106,190.062225 
	C186.299088,191.050537 180.396698,189.395294 176.771347,182.440704 
	C176.265793,181.470856 174.902985,180.947876 173.395554,179.808975 
	C173.104279,183.629547 172.873047,186.662430 172.615967,190.034332 
	C168.147583,190.034332 164.157654,189.830124 160.199478,190.097031 
	C156.854553,190.322571 154.685074,189.239487 152.767090,186.420242 
	C150.240158,182.705887 147.144287,179.378586 144.042191,175.577499 
	C140.524261,180.971375 137.520660,185.576675 134.088470,190.839096 
	C131.539719,187.746536 129.086594,185.740921 127.920570,183.154953 
	C125.423157,177.616364 118.022568,173.990189 121.158127,165.887207 
	C128.813660,151.158096 136.366608,136.775040 143.919571,122.391991 
	C144.179901,122.385658 144.440247,122.379326 144.700577,122.372986 
	C144.700577,138.845062 144.700577,155.317139 144.700577,171.683899 
	C150.570755,171.683899 155.644028,171.683899 161.026978,171.683899 
	C161.026978,143.235291 161.026978,115.120285 161.343994,87.094101 
	C163.593445,88.802849 165.525879,90.422783 167.526642,92.443817 
	C168.827942,99.782448 173.001053,104.285400 178.803787,104.939713 
	C187.417786,105.911026 192.257065,100.539536 192.419968,90.299751 
	C194.987656,93.093384 197.294998,95.702324 199.706299,98.706482 
	C200.076996,101.733841 200.558182,104.364510 200.576157,106.998344 
	C200.704208,125.763710 200.738831,144.529724 200.800018,163.295532 
	C200.809052,166.065079 200.801285,168.834671 200.801285,171.625427 
	C218.140778,171.625427 234.951935,171.625427 251.482040,171.625427 
	C251.961945,166.183304 252.406540,161.141418 252.851135,156.099518 
M171.851791,114.629692 
	C171.851791,133.670944 171.851791,152.712204 171.851791,171.619080 
	C178.019348,171.619080 183.401291,171.619080 188.534668,171.619080 
	C188.534668,151.845139 188.534668,132.476151 188.534668,112.485153 
	C182.689560,112.896973 177.317841,113.275436 171.851791,114.629692 
z"/>
<path fill="#FDFDFD" opacity="1.000000" stroke="none" 
	d="
M34.081169,84.023712 
	C34.108120,74.662094 34.135071,65.300476 34.429756,55.480106 
	C34.697495,55.021358 35.042908,54.951778 35.421608,54.878654 
	C36.546406,51.574310 37.292511,48.343086 38.504166,45.087502 
	C53.205849,45.052891 67.442101,45.066929 81.677979,45.001427 
	C83.443787,44.993305 85.207649,44.562557 86.972412,44.327641 
	C92.354996,44.268253 97.737587,44.208870 103.900833,44.464485 
	C107.778885,44.627090 110.876266,44.474697 113.973648,44.322308 
	C115.062469,44.262058 116.151299,44.201809 117.838791,44.429077 
	C119.283470,44.584251 120.129471,44.451904 120.975479,44.319557 
	C121.745583,44.260220 122.515694,44.200882 123.861755,44.429047 
	C125.283768,44.583595 126.129807,44.450638 126.975853,44.317680 
	C128.387909,44.258839 129.799957,44.199997 131.944565,44.458427 
	C135.776031,44.625576 138.874939,44.475441 141.973846,44.325310 
	C144.698654,44.266869 147.423447,44.208424 150.884003,44.454617 
	C153.738281,44.612850 155.856796,44.466450 157.975311,44.320053 
	C163.021545,44.261288 168.067780,44.202518 173.729156,44.412697 
	C174.888367,44.562275 175.432449,44.442917 175.976532,44.323555 
	C179.031769,44.264660 182.087021,44.205761 185.790634,44.433830 
	C187.284378,44.589317 188.129761,44.457829 188.975128,44.326344 
	C189.436356,44.266926 189.897568,44.207512 190.852875,44.416351 
	C191.890747,44.562943 192.434570,44.441280 192.978378,44.319618 
	C195.702362,44.257977 198.426361,44.196339 201.850433,44.439518 
	C204.025452,44.603413 205.500381,44.462486 206.975327,44.321560 
	C208.059296,44.261250 209.143250,44.200943 210.715500,44.366096 
	C211.203781,44.591553 211.651138,44.654518 211.651138,44.654518 
	C211.651138,44.654518 211.982971,44.321938 211.982971,44.321938 
	C212.443817,44.263809 212.904678,44.205681 213.979797,44.455410 
	C216.828445,44.883934 219.145279,44.687115 221.267868,45.238255 
	C222.654190,45.598217 223.758713,47.043377 224.569351,48.001556 
	C222.291809,48.000679 220.434387,48.000679 219.492111,48.000679 
	C218.860138,50.221199 218.464996,51.609623 217.760590,52.710548 
	C216.975037,52.294064 216.498810,52.052330 216.022430,52.052086 
	C159.826401,52.023666 103.630341,52.001781 47.434418,52.080627 
	C46.273258,52.082256 45.113754,53.262997 43.969627,53.927498 
	C43.985771,53.961338 43.911854,53.973976 43.760353,54.056179 
	C43.542061,54.230068 43.399914,54.351089 43.422119,54.408131 
	C43.499485,54.606861 43.633747,54.783436 43.814777,55.434116 
	C43.807678,62.925606 43.732182,69.951408 43.320736,76.995163 
	C42.392338,77.619110 41.799885,78.225121 41.207436,78.831139 
	C42.024937,79.228348 42.842442,79.625549 43.744911,80.413269 
	C43.862682,81.602379 43.895477,82.400978 43.943905,83.498840 
	C43.974121,84.198174 43.988701,84.598251 44.047440,85.322433 
	C45.059448,85.763184 46.027302,85.879822 47.278732,85.794609 
	C47.744110,85.169060 47.925907,84.745361 48.405697,84.301010 
	C49.097954,84.329605 49.492226,84.378838 49.991676,84.791565 
	C51.064758,85.766739 52.032658,86.378433 53.253586,87.270805 
	C58.831734,88.287628 63.844109,89.526352 66.002197,95.587578 
	C65.877823,95.966568 65.764496,96.092102 65.248276,96.167328 
	C64.119370,96.426979 62.885757,96.588600 62.745193,97.069633 
	C61.198071,102.364136 58.174038,102.376266 53.805016,100.271545 
	C52.278576,99.536201 49.950264,100.465401 47.541359,100.671890 
	C44.027130,101.051926 40.959686,101.394508 37.486519,101.543060 
	C33.884602,101.135651 34.029640,103.300766 34.183903,105.625191 
	C34.209385,105.796082 33.928490,105.997353 33.616116,106.040756 
	C33.386024,107.061188 33.468307,108.038231 33.681511,109.327805 
	C34.277767,110.890663 34.743103,112.140991 35.154251,113.803909 
	C36.266792,118.968750 41.095726,121.465057 46.388451,119.912254 
	C48.521206,120.882004 50.309959,121.813660 52.099533,123.113815 
	C56.018131,126.030304 59.935917,128.578278 63.903389,131.497345 
	C65.646263,134.245438 67.339455,136.622437 69.130066,139.066803 
	C69.227493,139.134186 69.193176,139.368576 69.148392,139.732300 
	C69.381836,140.728607 69.660072,141.361160 70.078110,142.429016 
	C70.129082,145.577911 70.040253,148.291534 69.692314,151.231445 
	C69.307968,152.354187 69.182732,153.250656 69.062439,154.383347 
	C69.067390,154.619583 68.777245,154.992615 68.420952,155.084167 
	C67.764946,156.282104 67.465225,157.388519 67.123886,158.749115 
	C67.028259,159.334518 66.974258,159.665710 66.832657,160.058228 
	C66.745056,160.119522 66.752815,160.333206 66.474838,160.507874 
	C65.462334,161.454269 64.727814,162.225998 63.696915,162.871841 
	C59.676922,161.879623 60.493103,164.878784 59.844910,166.918945 
	C59.701393,167.084595 59.264450,167.119858 58.834373,167.083710 
	C53.111168,167.007385 53.111168,167.007385 53.945038,170.368347 
	C52.524891,170.984436 51.350456,171.326614 50.041260,171.337631 
	C47.608494,171.634048 45.310493,172.261627 42.622536,173.006958 
	C41.155258,173.077682 40.077938,173.030640 38.944500,172.641388 
	C34.247139,171.900009 29.605898,171.500824 24.601652,171.126205 
	C22.492613,170.429520 20.746578,169.708237 18.923813,168.609131 
	C17.716599,167.880814 16.586111,167.530319 15.306494,167.207153 
	C15.157363,167.234512 15.000332,166.975113 15.002329,166.569916 
	C16.287268,161.186447 17.570210,156.208176 18.834007,151.304199 
	C21.108973,151.623001 22.533281,151.822586 23.957588,152.022186 
	C23.957590,152.022171 23.998323,151.997589 24.052364,152.367401 
	C26.733381,153.505249 29.360357,154.273270 31.987333,155.041290 
	C32.447739,155.050079 32.908146,155.058868 34.070808,154.969269 
	C36.452850,152.764297 37.137077,150.737122 34.304031,148.990494 
	C34.250816,148.546982 34.197601,148.103485 34.580391,147.249817 
	C35.398739,146.292557 35.781078,145.745468 36.526070,145.258026 
	C37.952106,145.867081 39.015499,146.416473 39.831848,147.152863 
	C40.820427,148.554047 42.056053,149.768265 43.420319,151.303497 
	C43.458519,152.069092 43.368080,152.513672 42.973408,153.138275 
	C42.626385,154.360229 42.583599,155.402206 42.540813,156.444168 
	C43.059902,156.212357 43.578987,155.980545 44.418007,155.666687 
	C45.815731,155.363556 46.893520,155.142471 48.157982,155.166641 
	C48.853310,154.826736 49.361961,154.241577 50.048672,153.342773 
	C53.753174,147.174438 53.043598,144.944336 45.881004,138.957275 
	C45.133587,137.442993 44.375751,136.309814 43.617912,135.176636 
	C43.064713,135.834824 42.511517,136.492996 41.599403,137.095490 
	C37.457985,135.118301 33.675491,133.196808 29.899841,130.961182 
	C29.264505,130.449387 28.622320,130.251709 27.669628,130.017944 
	C26.555403,129.365616 25.751684,128.749390 24.960464,127.760193 
	C23.979465,126.258316 22.985971,125.129417 21.939959,123.654556 
	C18.372063,120.558113 15.547347,117.453667 15.801659,112.524590 
	C15.828906,111.996490 14.826524,111.415268 14.301773,110.858696 
	C14.244505,109.868103 14.187239,108.877518 14.595041,107.353996 
	C15.123151,104.551743 15.186191,102.282425 15.249228,100.013100 
	C15.310851,99.697495 15.372476,99.381889 16.061497,98.995972 
	C17.130951,97.961578 17.573006,96.997513 18.015060,96.033440 
	C18.015060,96.033440 17.996380,96.001541 18.365032,95.971863 
	C19.500551,94.658638 20.267418,93.375107 21.034286,92.091568 
	C21.034286,92.091568 21.025452,92.017136 21.271458,91.929443 
	C21.778723,91.659073 21.948870,91.413307 22.027906,91.104446 
	C22.237053,90.784882 22.446199,90.465324 23.287628,90.101440 
	C24.617071,89.384743 25.314232,88.712364 26.011393,88.039993 
	C26.011393,88.039993 25.998713,87.996819 26.351582,88.010292 
	C27.473768,87.446129 28.243088,86.868492 29.012409,86.290855 
	C29.176634,86.224442 29.340857,86.158020 30.091038,86.065460 
	C31.108946,86.046150 31.540895,86.052979 32.024429,86.350525 
	C32.720287,86.431129 33.364555,86.221001 34.232750,85.867889 
	C34.331509,85.157829 34.206337,84.590775 34.081169,84.023712 
z"/>
<path fill="#083934" opacity="1.000000" stroke="none" 
	d="
M227.754944,46.620834 
	C231.458008,50.844364 234.860580,55.387630 238.934662,59.216354 
	C245.016556,64.931992 244.090500,72.070648 243.599304,79.862457 
	C243.203217,91.042313 243.188599,101.521141 243.113480,112.465012 
	C242.971573,126.288361 242.890167,139.646667 242.467987,153.012695 
	C241.416473,153.696304 240.705719,154.372208 239.570679,155.168121 
	C237.100464,155.207291 235.054520,155.126450 232.734009,154.747742 
	C229.302856,154.650299 226.146240,154.850708 222.603455,155.173004 
	C221.148331,155.226227 220.079422,155.157593 219.008163,154.614380 
	C219.005203,136.605728 219.038361,119.071480 218.954407,101.537796 
	C218.945511,99.679138 218.249619,97.823776 217.746704,95.654999 
	C217.698486,94.909309 217.776031,94.475502 218.185913,93.911774 
	C220.001694,93.214409 221.485138,92.646965 223.249451,92.231079 
	C224.027969,93.467972 224.525635,94.553284 225.023300,95.638603 
	C225.516998,95.203079 226.010696,94.767555 226.504395,94.332031 
	C226.351959,92.222237 226.199524,90.112434 226.157745,87.594780 
	C226.187958,85.789856 226.107529,84.392799 226.130127,82.749435 
	C226.171936,82.336029 226.110687,82.168907 226.149628,81.749359 
	C226.179581,81.330093 226.109329,81.163231 226.150803,80.539307 
	C226.163376,69.388474 226.064209,58.694698 226.096863,47.702042 
	C226.737457,47.142387 227.246201,46.881615 227.754944,46.620834 
z"/>
<path fill="#F1F8F7" opacity="1.000000" stroke="none" 
	d="
M217.796448,189.013123 
	C217.796448,185.874100 217.796448,182.735092 217.796448,178.446228 
	C220.978729,179.083755 223.619522,179.612793 226.290863,180.979218 
	C226.420090,183.888641 226.518768,185.960709 226.617432,188.032761 
	C226.566422,194.378357 226.515396,200.723969 226.450958,207.940659 
	C226.530380,210.885605 226.623230,212.959473 226.716095,215.033325 
	C226.084976,216.979156 225.453857,218.925003 224.082733,220.870056 
	C222.893295,220.932541 222.443848,220.995819 221.994385,221.059097 
	C219.620239,221.008530 217.246094,220.957947 214.041809,220.895233 
	C212.142441,220.948639 211.073212,221.014160 210.003983,221.079681 
	C201.309814,221.017334 192.615646,220.954987 183.091797,220.877747 
	C181.508865,220.929901 180.755615,220.996918 180.002365,221.063919 
	C179.249985,221.007568 178.497604,220.951233 176.953888,220.881760 
	C174.439682,220.934525 172.716812,221.000412 170.993927,221.066299 
	C170.241760,221.012329 169.489609,220.958359 167.975098,220.890839 
	C166.142670,220.942627 165.072586,221.007996 164.002487,221.073364 
	C163.247925,221.018753 162.493378,220.964142 160.938721,220.895935 
	C158.093811,220.948730 156.049026,221.015137 154.004227,221.081558 
	C151.297852,221.019135 148.591492,220.956726 145.012558,220.878662 
	C142.094330,220.930695 140.048645,220.998383 138.002975,221.066071 
	C136.283371,221.002884 134.563751,220.939697 132.001602,220.860977 
	C129.439865,220.913559 127.720688,220.981674 126.001503,221.049774 
	C120.307129,220.997864 114.612755,220.945953 107.999023,220.880432 
	C101.387314,220.931564 95.694977,220.996307 90.002632,221.061035 
	C88.608147,221.009506 87.213654,220.957977 84.948410,220.893799 
	C78.052849,220.944107 72.028053,221.007111 66.003250,221.070099 
	C62.635601,221.015289 59.267956,220.960480 55.012794,220.893661 
	C51.750881,220.943237 49.376472,221.004822 47.002068,221.066391 
	C44.628620,220.995422 42.255169,220.924454 39.083717,220.830948 
	C36.878010,220.511642 35.470306,220.214874 34.062603,219.918106 
	C34.056355,210.896881 34.050102,201.875641 33.894264,191.994186 
	C34.055237,187.752380 34.365791,184.370789 34.845379,180.674652 
	C35.672668,180.175018 36.330933,179.989914 37.369095,179.943817 
	C39.678364,180.343933 41.607735,180.605057 43.614883,180.876694 
	C43.812866,182.422455 43.978523,183.715775 44.059277,185.379730 
	C44.031590,186.504181 44.088802,187.257980 44.051666,188.440079 
	C44.021278,190.910614 44.085243,192.952850 44.059937,195.456100 
	C43.970665,201.359512 43.970665,206.801941 43.970665,212.511505 
	C102.118408,212.511505 159.778931,212.511505 217.808762,212.511505 
	C217.808762,204.850128 217.808762,197.416779 217.882751,189.739868 
	C217.903305,189.335251 217.849869,189.174179 217.796448,189.013123 
z"/>
<path fill="#F9FCFC" opacity="1.000000" stroke="none" 
	d="
M233.008575,155.045593 
	C235.054520,155.126450 237.100464,155.207291 239.942673,155.276917 
	C241.647644,154.904633 242.556366,154.543579 243.581299,154.234680 
	C243.697510,154.286850 243.892761,154.123199 243.892761,154.123199 
	C243.892761,154.123199 244.387573,154.189972 244.744934,154.373444 
	C245.427277,154.452209 245.752274,154.347488 246.077255,154.242767 
	C248.103088,154.736465 250.128922,155.230179 252.502960,155.911713 
	C252.406540,161.141418 251.961945,166.183304 251.482040,171.625427 
	C234.951935,171.625427 218.140778,171.625427 200.801285,171.625427 
	C200.801285,168.834671 200.809052,166.065079 200.800018,163.295532 
	C200.738831,144.529724 200.704208,125.763710 200.576157,106.998344 
	C200.558182,104.364510 200.076996,101.733841 199.896576,98.265465 
	C200.125671,94.624199 200.268463,91.819183 200.719238,88.915337 
	C201.357025,87.602356 201.686798,86.388199 202.475555,85.103348 
	C207.296478,85.068871 211.658401,85.105087 216.136749,85.330482 
	C216.657150,85.674423 217.061172,85.829193 217.475922,86.192871 
	C217.486649,86.401779 217.802399,86.676262 217.711304,87.131729 
	C217.697983,89.738693 217.775772,91.890190 217.853561,94.041687 
	C217.776031,94.475502 217.698486,94.909309 217.626678,96.113258 
	C217.676773,114.864166 217.693268,132.845139 217.818863,150.825348 
	C217.828812,152.249252 218.595505,153.667877 219.010498,155.088959 
	C220.079422,155.157593 221.148331,155.226227 223.048553,155.278458 
	C226.922760,155.189896 229.965668,155.117752 233.008575,155.045593 
z"/>
<path fill="#183C36" opacity="1.000000" stroke="none" 
	d="
M29.892994,131.275314 
	C33.675491,133.196808 37.457985,135.118301 41.804352,137.347198 
	C43.535679,138.215866 44.703129,138.777130 45.870579,139.338379 
	C53.043598,144.944336 53.753174,147.174438 49.755409,153.407837 
	C48.846493,154.164810 48.408901,154.543091 47.971306,154.921387 
	C46.893520,155.142471 45.815731,155.363556 44.308968,155.389130 
	C43.679211,154.448517 43.478424,153.703400 43.277641,152.958267 
	C43.368080,152.513672 43.458519,152.069092 43.544205,150.917679 
	C42.385933,149.129196 41.232414,148.047531 40.078896,146.965881 
	C39.015499,146.416473 37.952106,145.867081 36.315735,145.041977 
	C35.190666,144.891174 34.638573,145.016083 34.086479,145.141006 
	C30.395445,140.613678 26.643545,136.134109 23.039110,131.538849 
	C21.242401,129.248260 19.715631,126.745926 18.467503,124.031601 
	C19.592134,124.108116 20.316023,124.492393 21.182348,125.169815 
	C22.532513,126.353035 23.740238,127.243103 24.947966,128.133163 
	C25.751684,128.749390 26.555403,129.365616 27.802990,130.288696 
	C28.795570,130.822128 29.344282,131.048721 29.892994,131.275314 
z"/>
<path fill="#345A4F" opacity="1.000000" stroke="none" 
	d="
M242.098526,236.011826 
	C242.098526,236.011826 242.461716,236.049423 242.641891,236.071701 
	C241.255478,236.725464 239.690384,237.904114 238.122086,237.908432 
	C198.858353,238.016159 159.594284,238.003189 120.330284,238.004822 
	C96.538933,238.005814 72.747589,237.995590 48.476265,237.699524 
	C48.001266,237.227829 48.006241,237.046967 48.476784,236.916443 
	C111.764519,236.981247 174.586685,237.002899 237.408829,236.968323 
	C238.972229,236.967468 240.535309,236.344604 242.098526,236.011826 
z"/>
<path fill="#163D37" opacity="1.000000" stroke="none" 
	d="
M15.000333,166.975113 
	C15.000332,166.975113 15.157363,167.234512 15.498749,167.500656 
	C16.893604,168.173508 17.947077,168.580231 19.000546,168.986954 
	C20.746578,169.708237 22.492613,170.429520 24.837852,171.351440 
	C26.645872,172.006302 27.854687,172.460510 29.011417,172.971710 
	C28.959335,173.028671 28.850525,173.138184 28.449059,173.105347 
	C26.124388,173.277466 24.201180,173.482407 21.844124,173.733597 
	C22.820625,176.095749 23.417875,177.540497 23.998943,179.000977 
	C23.982758,179.016693 23.949825,179.048141 23.949825,179.048141 
	C19.659184,174.897629 15.368542,170.747116 11.396623,166.380356 
	C12.810341,166.434433 13.905337,166.704773 15.000333,166.975113 
z"/>
<path fill="#F6F9F8" opacity="1.000000" stroke="none" 
	d="
M15.002330,166.569916 
	C13.905337,166.704773 12.810341,166.434433 11.397522,166.032288 
	C13.371248,160.198486 15.662798,154.496475 18.188250,148.212479 
	C20.471170,149.511490 22.083025,150.428665 23.826233,151.684006 
	C22.533281,151.822586 21.108973,151.623001 18.834007,151.304199 
	C17.570210,156.208176 16.287268,161.186447 15.002330,166.569916 
z"/>
<path fill="#F0F7F4" opacity="1.000000" stroke="none" 
	d="
M86.515045,44.228714 
	C85.207649,44.562557 83.443787,44.993305 81.677979,45.001427 
	C67.442101,45.066929 53.205849,45.052891 38.128647,45.052559 
	C36.535328,45.030869 35.783077,45.019764 35.030827,45.008659 
	C36.543251,44.707436 38.054745,44.150021 39.568245,44.144524 
	C55.064533,44.088230 70.561150,44.121521 86.515045,44.228714 
z"/>
<path fill="#163D37" opacity="1.000000" stroke="none" 
	d="
M34.676350,180.989212 
	C34.365791,184.370789 34.055237,187.752380 33.723972,191.551361 
	C31.452778,189.273712 29.202288,186.578629 26.926867,183.495041 
	C26.901934,183.106522 27.001461,182.998550 27.391975,183.000275 
	C30.080442,182.331055 32.378395,181.660141 34.676350,180.989212 
z"/>
<path fill="#6E9B90" opacity="1.000000" stroke="none" 
	d="
M243.416138,234.759247 
	C243.107559,220.817093 243.177307,206.670776 243.599243,192.290863 
	C243.899124,206.223221 243.846802,220.389160 243.416138,234.759247 
z"/>
<path fill="#729A99" opacity="1.000000" stroke="none" 
	d="
M243.922546,153.646484 
	C243.892761,154.123199 243.697510,154.286850 243.364594,153.969482 
	C242.957367,153.436386 242.883057,153.220688 242.808762,153.004974 
	C242.890167,139.646667 242.971573,126.288361 243.275970,112.462593 
	C243.498978,111.995132 243.824371,111.991920 243.824371,111.991920 
	C243.867020,125.717873 243.909668,139.443817 243.922546,153.646484 
z"/>
<path fill="#F0F7F4" opacity="1.000000" stroke="none" 
	d="
M21.039913,124.876663 
	C20.316023,124.492393 19.592134,124.108116 18.558733,123.671730 
	C16.869871,119.607872 15.490520,115.596115 14.206472,111.221527 
	C14.826524,111.415268 15.828906,111.996490 15.801659,112.524590 
	C15.547347,117.453667 18.372063,120.558113 21.736387,123.746086 
	C21.330236,124.356918 21.148430,124.587944 21.039913,124.876663 
z"/>
<path fill="#7FAA7F" opacity="1.000000" stroke="none" 
	d="
M243.897247,111.529037 
	C243.824371,111.991920 243.498978,111.995132 243.336487,111.997551 
	C243.188599,101.521141 243.203217,91.042313 243.567505,80.332703 
	C243.934845,90.423332 243.952499,100.744751 243.897247,111.529037 
z"/>
<path fill="#F6F9F8" opacity="1.000000" stroke="none" 
	d="
M35.014114,45.004227 
	C35.783077,45.019764 36.535328,45.030869 37.663097,45.076920 
	C37.292511,48.343086 36.546406,51.574310 35.411102,54.536392 
	C34.792141,53.190605 34.562378,52.113960 34.332619,51.037312 
	C34.274399,49.624218 34.216179,48.211128 34.407684,46.265587 
	C34.845947,45.535511 34.962456,45.301945 35.006939,45.032448 
	C35.006939,45.032448 34.997398,44.999794 35.014114,45.004227 
z"/>
<path fill="#1B403B" opacity="1.000000" stroke="none" 
	d="
M33.975929,220.279297 
	C35.470306,220.214874 36.878010,220.511642 38.646111,220.915833 
	C39.303772,223.097839 39.601036,225.172424 39.945084,227.637527 
	C37.957664,225.565536 35.923458,223.103012 33.975929,220.279297 
z"/>
<path fill="#F0F7F4" opacity="1.000000" stroke="none" 
	d="
M227.645264,46.289604 
	C227.246201,46.881615 226.737457,47.142387 225.852966,47.704521 
	C225.477249,48.005890 224.989471,48.002441 224.989471,48.002441 
	C223.758713,47.043377 222.654190,45.598217 221.267868,45.238255 
	C219.145279,44.687115 216.828445,44.883934 214.319305,44.545189 
	C218.567108,44.659477 223.408554,42.354637 227.645264,46.289604 
z"/>
<path fill="#1B403B" opacity="1.000000" stroke="none" 
	d="
M40.004303,228.355042 
	C42.937374,229.107407 45.797276,230.289627 44.974560,234.705978 
	C43.309563,232.932266 41.673031,230.816879 40.004303,228.355042 
z"/>
<path fill="#F6F9F8" opacity="1.000000" stroke="none" 
	d="
M31.829411,154.703735 
	C29.360357,154.273270 26.733381,153.505249 24.043182,152.389313 
	C26.543800,152.816330 29.107643,153.591248 31.829411,154.703735 
z"/>
<path fill="#F6F9F8" opacity="1.000000" stroke="none" 
	d="
M34.215569,149.413300 
	C37.137077,150.737122 36.452850,152.764297 34.415359,154.944443 
	C34.080807,153.290695 34.103958,151.563400 34.215569,149.413300 
z"/>
<path fill="#F0F7F4" opacity="1.000000" stroke="none" 
	d="
M15.196335,100.383926 
	C15.186191,102.282425 15.123151,104.551743 14.684660,106.990837 
	C14.587285,105.025322 14.865362,102.890045 15.196335,100.383926 
z"/>
<path fill="#F0F7F4" opacity="1.000000" stroke="none" 
	d="
M141.531830,44.225361 
	C138.874939,44.475441 135.776031,44.625576 132.360672,44.547623 
	C135.059418,44.254833 138.074600,44.190125 141.531830,44.225361 
z"/>
<path fill="#F0F7F4" opacity="1.000000" stroke="none" 
	d="
M113.531204,44.224777 
	C110.876266,44.474697 107.778885,44.627090 104.363838,44.553577 
	C107.060364,44.260864 110.074562,44.194054 113.531204,44.224777 
z"/>
<path fill="#163D37" opacity="1.000000" stroke="none" 
	d="
M26.853878,183.162033 
	C25.860203,182.065857 24.914587,180.914185 23.959398,179.405319 
	C23.949825,179.048141 23.982758,179.016693 24.332970,179.058411 
	C25.455944,180.399597 26.228703,181.699081 27.001461,182.998550 
	C27.001461,182.998550 26.901934,183.106522 26.853878,183.162033 
z"/>
<path fill="#F0F7F4" opacity="1.000000" stroke="none" 
	d="
M20.717739,92.177521 
	C20.267418,93.375107 19.500551,94.658638 18.382473,95.977722 
	C18.821239,94.763329 19.611214,93.513397 20.717739,92.177521 
z"/>
<path fill="#F0F7F4" opacity="1.000000" stroke="none" 
	d="
M31.972843,86.059807 
	C31.540895,86.052979 31.108946,86.046150 30.353420,86.023514 
	C31.154749,85.383980 32.279652,84.760254 33.742859,84.080124 
	C34.206337,84.590775 34.331509,85.157829 33.893265,85.866814 
	C32.877514,86.025764 32.425179,86.042786 31.972843,86.059807 
z"/>
<path fill="#F0F7F4" opacity="1.000000" stroke="none" 
	d="
M157.550446,44.221264 
	C155.856796,44.466450 153.738281,44.612850 151.331329,44.539505 
	C153.070465,44.253998 155.098038,44.188236 157.550446,44.221264 
z"/>
<path fill="#1B403B" opacity="1.000000" stroke="none" 
	d="
M48.011219,236.866089 
	C48.006241,237.046967 48.001266,237.227829 48.009430,237.679474 
	C47.085365,237.172958 46.148155,236.395615 45.081947,235.335693 
	C45.820759,235.192337 46.688568,235.331573 47.782692,235.946442 
	C48.009010,236.422089 48.011219,236.866089 48.011219,236.866089 
z"/>
<path fill="#F0F7F4" opacity="1.000000" stroke="none" 
	d="
M25.703232,88.078522 
	C25.314232,88.712364 24.617071,89.384743 23.585960,90.067719 
	C23.966366,89.424561 24.680717,88.770805 25.703232,88.078522 
z"/>
<path fill="#F0F7F4" opacity="1.000000" stroke="none" 
	d="
M28.703821,86.228516 
	C28.243088,86.868492 27.473768,87.446129 26.372726,88.017975 
	C26.825747,87.396835 27.610491,86.781502 28.703821,86.228516 
z"/>
<path fill="#F0F7F4" opacity="1.000000" stroke="none" 
	d="
M17.711090,96.142227 
	C17.573006,96.997513 17.130951,97.961578 16.341572,98.961884 
	C16.465206,98.082420 16.936165,97.166710 17.711090,96.142227 
z"/>
<path fill="#F0F7F4" opacity="1.000000" stroke="none" 
	d="
M206.571732,44.225616 
	C205.500381,44.462486 204.025452,44.603413 202.296280,44.531670 
	C203.417419,44.255890 204.792770,44.192780 206.571732,44.225616 
z"/>
<path fill="#F6F9F8" opacity="1.000000" stroke="none" 
	d="
M34.123020,145.455826 
	C34.638573,145.016083 35.190666,144.891174 35.953091,144.982315 
	C35.781078,145.745468 35.398739,146.292557 34.676121,146.925278 
	C34.277081,146.597473 34.218319,146.184067 34.123020,145.455826 
z"/>
<path fill="#F0F7F4" opacity="1.000000" stroke="none" 
	d="
M34.235710,51.428589 
	C34.562378,52.113960 34.792141,53.190605 35.032406,54.609516 
	C35.042908,54.951778 34.697495,55.021358 34.521320,55.020889 
	C34.276363,53.953571 34.207584,52.886719 34.235710,51.428589 
z"/>
<path fill="#F0F7F4" opacity="1.000000" stroke="none" 
	d="
M120.615227,44.222237 
	C120.129471,44.451904 119.283470,44.584251 118.239822,44.518147 
	C118.779785,44.254768 119.517380,44.189842 120.615227,44.222237 
z"/>
<path fill="#F0F7F4" opacity="1.000000" stroke="none" 
	d="
M188.615097,44.228294 
	C188.129761,44.457829 187.284378,44.589317 186.240906,44.523636 
	C186.780212,44.261059 187.517639,44.195652 188.615097,44.228294 
z"/>
<path fill="#F0F7F4" opacity="1.000000" stroke="none" 
	d="
M126.615387,44.221214 
	C126.129807,44.450638 125.283768,44.583595 124.239960,44.518105 
	C124.779770,44.254688 125.517342,44.189720 126.615387,44.221214 
z"/>
<path fill="#F0F7F4" opacity="1.000000" stroke="none" 
	d="
M192.659973,44.222660 
	C192.434570,44.441280 191.890747,44.562943 191.193359,44.504139 
	C191.473724,44.257679 191.907639,44.191689 192.659973,44.222660 
z"/>
<path fill="#F0F7F4" opacity="1.000000" stroke="none" 
	d="
M175.658447,44.225552 
	C175.432449,44.442917 174.888367,44.562275 174.191116,44.500790 
	C174.472092,44.255814 174.906235,44.191681 175.658447,44.225552 
z"/>
<path fill="#729A99" opacity="1.000000" stroke="none" 
	d="
M245.781235,154.115311 
	C245.752274,154.347488 245.427277,154.452209 244.993988,154.390778 
	C245.085541,154.145706 245.285370,154.066788 245.781235,154.115311 
z"/>
<path fill="#F0F7F4" opacity="1.000000" stroke="none" 
	d="
M211.743896,44.232925 
	C211.982971,44.321938 211.651138,44.654518 211.651138,44.654518 
	C211.651138,44.654518 211.203781,44.591553 211.114716,44.455357 
	C211.185379,44.260746 211.345108,44.202328 211.743896,44.232925 
z"/>
<path fill="#F0F7F4" opacity="1.000000" stroke="none" 
	d="
M34.765083,45.085602 
	C34.962456,45.301945 34.845947,45.535511 34.496819,45.849182 
	C34.336220,45.965221 34.179398,45.495331 34.179398,45.495331 
	C34.179398,45.495331 34.523224,45.138760 34.765083,45.085602 
z"/>
<path fill="#F0F7F4" opacity="1.000000" stroke="none" 
	d="
M21.777790,91.136993 
	C21.948870,91.413307 21.778723,91.659073 21.308758,91.933105 
	C21.242590,91.739479 21.385130,91.454514 21.777790,91.136993 
z"/>
<path fill="#7AB69E" opacity="1.000000" stroke="none" 
	d="
M200.411255,89.014160 
	C200.268463,91.819183 200.125671,94.624199 199.792618,97.870239 
	C197.294998,95.702324 194.987656,93.093384 192.275513,89.975098 
	C189.556580,84.464767 185.524628,81.897728 180.136353,82.078964 
	C174.692001,82.262085 170.996597,85.262802 169.045654,90.409317 
	C168.798706,91.060745 168.000900,91.503349 167.458313,92.042709 
	C165.525879,90.422783 163.593445,88.802849 161.203094,86.707855 
	C156.301270,85.821640 151.856323,85.135292 147.414001,85.151794 
	C145.902390,85.157410 143.801666,86.585052 142.996902,87.962708 
	C140.163269,92.813576 137.842484,97.960472 135.202988,102.929100 
	C131.272964,110.327049 127.237366,117.668892 122.898117,124.949112 
	C115.886673,114.832611 109.263062,104.775017 102.508812,94.805931 
	C101.708298,93.624374 100.193123,92.927002 98.885017,91.679031 
	C94.294334,81.203156 85.675545,86.022751 78.413017,85.082352 
	C78.021385,91.271133 77.670036,96.823410 77.002762,102.304504 
	C73.716850,99.028679 70.746857,95.824028 67.755943,92.278275 
	C63.148106,89.677643 58.561199,87.418114 53.696426,85.009148 
	C52.241211,84.715828 51.063850,84.571953 49.886494,84.428070 
	C49.492226,84.378838 49.097954,84.329605 48.145420,84.150375 
	C46.367527,83.746773 45.147903,83.473175 43.928276,83.199570 
	C43.895477,82.400978 43.862682,81.602379 43.837803,80.037743 
	C43.782711,78.506874 43.719700,77.742043 43.656685,76.977219 
	C43.732182,69.951408 43.807678,62.925606 43.899086,55.192677 
	C43.913948,54.315029 43.912903,54.144505 43.911854,53.973976 
	C43.911854,53.973976 43.985771,53.961338 44.440716,53.882977 
	C79.654800,53.784546 114.413963,53.732403 149.173080,53.755753 
	C172.119492,53.771168 195.065826,53.895092 218.005081,54.311378 
	C218.062515,55.101051 218.127075,55.549786 218.117279,56.461926 
	C218.096664,62.950733 218.150421,68.976135 218.132660,75.397629 
	C218.112747,76.861748 218.164322,77.929779 218.147308,79.326279 
	C218.121902,80.098015 218.165070,80.541267 218.136017,81.368210 
	C217.382645,82.881691 216.701492,84.011497 216.020340,85.141296 
	C211.658401,85.105087 207.296478,85.068871 202.110947,85.091202 
	C200.995331,86.437881 200.703293,87.726021 200.411255,89.014160 
z"/>
<path fill="#F8FBFB" opacity="1.000000" stroke="none" 
	d="
M77.318680,102.375687 
	C77.670036,96.823410 78.021385,91.271133 78.413017,85.082352 
	C85.675545,86.022751 94.294334,81.203156 98.845016,92.044151 
	C105.985481,105.956406 113.041733,119.177383 120.614746,133.366592 
	C121.700020,129.930923 122.473351,127.482773 123.246689,125.034615 
	C127.237366,117.668892 131.272964,110.327049 135.202988,102.929100 
	C137.842484,97.960472 140.163269,92.813576 142.996902,87.962708 
	C143.801666,86.585052 145.902390,85.157410 147.414001,85.151794 
	C151.856323,85.135292 156.301270,85.821640 160.886078,86.619034 
	C161.026978,115.120285 161.026978,143.235291 161.026978,171.683899 
	C155.644028,171.683899 150.570755,171.683899 144.700577,171.683899 
	C144.700577,155.317139 144.700577,138.845062 144.700577,122.372986 
	C144.440247,122.379326 144.179901,122.385658 143.919571,122.391991 
	C136.366608,136.775040 128.813660,151.158096 120.767044,165.832397 
	C118.527412,164.762894 116.443291,163.666260 115.121681,161.974091 
	C113.494637,159.890854 112.503128,157.311234 111.215652,154.572418 
	C106.039169,143.538269 100.883987,132.877838 95.728806,122.217422 
	C95.454605,122.277870 95.180412,122.338318 94.906212,122.398758 
	C94.906212,138.864304 94.906212,155.329849 94.906212,171.711502 
	C89.069801,171.711502 83.684601,171.711502 77.782303,171.711502 
	C77.782303,162.595963 77.782303,153.815048 77.888840,144.574554 
	C77.949364,136.738464 77.903336,129.361954 77.945328,121.525375 
	C77.795128,114.835426 77.556900,108.605553 77.318680,102.375687 
z"/>
<path fill="#216A56" opacity="1.000000" stroke="none" 
	d="
M111.236938,154.946152 
	C112.503128,157.311234 113.494637,159.890854 115.121681,161.974091 
	C116.443291,163.666260 118.527412,164.762894 120.664452,166.178452 
	C118.022568,173.990189 125.423157,177.616364 127.920570,183.154953 
	C129.086594,185.740921 131.539719,187.746536 134.088470,190.839096 
	C137.520660,185.576675 140.524261,180.971375 144.042191,175.577499 
	C147.144287,179.378586 150.240158,182.705887 152.767090,186.420242 
	C154.685074,189.239487 156.854553,190.322571 160.199478,190.097031 
	C164.157654,189.830124 168.147583,190.034332 172.615967,190.034332 
	C172.873047,186.662430 173.104279,183.629547 173.395554,179.808975 
	C174.902985,180.947876 176.265793,181.470856 176.771347,182.440704 
	C180.396698,189.395294 186.299088,191.050537 193.502106,190.062225 
	C194.810028,189.882782 196.187622,189.870697 197.491318,190.063507 
	C201.822327,190.704010 203.757538,189.119583 203.071640,184.606964 
	C202.879196,183.340927 203.174622,182.000732 204.275177,179.924850 
	C206.195831,182.135269 208.603271,184.094421 209.908203,186.622650 
	C211.384583,189.483047 213.152878,190.543777 216.769287,189.945282 
	C217.390182,189.945099 217.808762,189.983429 217.808762,189.983429 
	C217.808762,197.416779 217.808762,204.850128 217.808762,212.511505 
	C159.778931,212.511505 102.118408,212.511505 43.970665,212.511505 
	C43.970665,206.801941 43.970665,201.359512 44.279358,195.440567 
	C44.588055,194.964035 45.025436,194.916367 45.486958,194.946899 
	C60.096992,195.674301 72.831787,192.172394 83.781609,181.101761 
	C87.973381,192.529694 97.027428,189.936768 105.129311,190.032898 
	C105.295731,190.034866 105.465355,190.011261 105.628174,190.035400 
	C109.262016,190.574280 110.132965,188.790878 110.059769,185.441818 
	C109.874336,176.957382 109.929245,168.465302 110.050148,159.978607 
	C110.074112,158.295822 110.822571,156.623367 111.236938,154.946152 
z"/>
<path fill="#F7FBFA" opacity="1.000000" stroke="none" 
	d="
M171.898956,114.141800 
	C177.317841,113.275436 182.689560,112.896973 188.534668,112.485153 
	C188.534668,132.476151 188.534668,151.845139 188.534668,171.619080 
	C183.401291,171.619080 178.019348,171.619080 171.851791,171.619080 
	C171.851791,152.712204 171.851791,133.670944 171.898956,114.141800 
z"/>
<path fill="#F5FAF9" opacity="1.000000" stroke="none" 
	d="
M167.526642,92.443817 
	C168.000900,91.503349 168.798706,91.060745 169.045654,90.409317 
	C170.996597,85.262802 174.692001,82.262085 180.136353,82.078964 
	C185.524628,81.897728 189.556580,84.464767 192.015167,89.790398 
	C192.257065,100.539536 187.417786,105.911026 178.803787,104.939713 
	C173.001053,104.285400 168.827942,99.782448 167.526642,92.443817 
z"/>
<path fill="#00271E" opacity="1.000000" stroke="none" 
	d="
M48.476784,236.916443 
	C48.011219,236.866089 48.009010,236.422089 48.001595,236.199921 
	C112.376167,235.985458 176.758148,235.993164 241.619324,236.006348 
	C240.535309,236.344604 238.972229,236.967468 237.408829,236.968323 
	C174.586685,237.002899 111.764519,236.981247 48.476784,236.916443 
z"/>
<path fill="#1B403B" opacity="1.000000" stroke="none" 
	d="
M66.310493,221.349548 
	C72.028053,221.007111 78.052849,220.944107 84.537003,220.978424 
	C78.870148,221.260132 72.743942,221.444550 66.310493,221.349548 
z"/>
<path fill="#1B403B" opacity="1.000000" stroke="none" 
	d="
M90.308533,221.341949 
	C95.694977,220.996307 101.387314,220.931564 107.537964,220.967972 
	C102.202316,221.253693 96.408371,221.438293 90.308533,221.341949 
z"/>
<path fill="#1B403B" opacity="1.000000" stroke="none" 
	d="
M226.926880,187.886902 
	C226.518768,185.960709 226.420090,183.888641 226.462799,181.391769 
	C226.814880,183.224976 227.025604,185.483017 226.926880,187.886902 
z"/>
<path fill="#1B403B" opacity="1.000000" stroke="none" 
	d="
M227.011475,214.873917 
	C226.623230,212.959473 226.530380,210.885605 226.583344,208.388000 
	C226.921753,210.214325 227.114319,212.464417 227.011475,214.873917 
z"/>
<path fill="#1B403B" opacity="1.000000" stroke="none" 
	d="
M171.076263,221.425476 
	C172.716812,221.000412 174.439682,220.934525 176.583923,220.966400 
	C175.427689,224.317535 173.332123,223.367493 171.076263,221.425476 
z"/>
<path fill="#1B403B" opacity="1.000000" stroke="none" 
	d="
M47.280357,221.333221 
	C49.376472,221.004822 51.750881,220.943237 54.560966,220.978363 
	C52.517311,221.250061 50.037975,221.425064 47.280357,221.333221 
z"/>
<path fill="#1B403B" opacity="1.000000" stroke="none" 
	d="
M154.273590,221.342468 
	C156.049026,221.015137 158.093811,220.948730 160.567642,220.979614 
	C158.845444,221.252396 156.694199,221.427902 154.273590,221.342468 
z"/>
<path fill="#1B403B" opacity="1.000000" stroke="none" 
	d="
M138.270203,221.330414 
	C140.048645,220.998383 142.094330,220.930695 144.568573,220.963257 
	C142.843918,221.240585 140.690689,221.417679 138.270203,221.330414 
z"/>
<path fill="#1B403B" opacity="1.000000" stroke="none" 
	d="
M126.255310,221.311798 
	C127.720688,220.981674 129.439865,220.913559 131.578857,220.946625 
	C130.168808,221.223114 128.338974,221.398453 126.255310,221.311798 
z"/>
<path fill="#1B403B" opacity="1.000000" stroke="none" 
	d="
M164.221588,221.317902 
	C165.072586,221.007996 166.142670,220.942627 167.605301,220.974686 
	C166.812119,221.235550 165.626404,221.398987 164.221588,221.317902 
z"/>
<path fill="#1B403B" opacity="1.000000" stroke="none" 
	d="
M210.223236,221.323349 
	C211.073212,221.014160 212.142441,220.948639 213.603973,220.979889 
	C212.811691,221.240112 211.627090,221.403564 210.223236,221.323349 
z"/>
<path fill="#1B403B" opacity="1.000000" stroke="none" 
	d="
M222.038712,221.348969 
	C222.443848,220.995819 222.893295,220.932541 223.673172,220.964111 
	C223.684097,221.560745 223.364609,222.062531 223.045135,222.564331 
	C222.724442,222.255829 222.403732,221.947342 222.038712,221.348969 
z"/>
<path fill="#1B403B" opacity="1.000000" stroke="none" 
	d="
M180.191925,221.299957 
	C180.755615,220.996918 181.508865,220.929901 182.629852,220.963654 
	C182.125549,221.221588 181.253525,221.378784 180.191925,221.299957 
z"/>
<path fill="#1B403B" opacity="1.000000" stroke="none" 
	d="
M217.882751,189.739868 
	C217.808762,189.983429 217.390182,189.945099 217.182495,189.911530 
	C217.072906,189.617096 217.227951,189.396164 217.618164,189.114136 
	C217.849869,189.174179 217.903305,189.335251 217.882751,189.739868 
z"/>
<path fill="#083A34" opacity="1.000000" stroke="none" 
	d="
M111.215645,154.572418 
	C110.822571,156.623367 110.074112,158.295822 110.050148,159.978607 
	C109.929245,168.465302 109.874336,176.957382 110.059769,185.441818 
	C110.132965,188.790878 109.262016,190.574280 105.628174,190.035400 
	C105.465355,190.011261 105.295731,190.034866 105.129311,190.032898 
	C97.027428,189.936768 87.973381,192.529694 83.781609,181.101761 
	C72.831787,192.172394 60.096992,195.674301 45.479179,194.542755 
	C44.721928,192.075958 44.433971,190.043884 44.146015,188.011795 
	C44.088802,187.257980 44.031590,186.504181 44.410248,185.295624 
	C44.763565,183.182098 45.335979,180.758484 44.468819,180.015884 
	C42.339233,178.192139 39.549118,176.827759 36.989193,179.804825 
	C36.330933,179.989914 35.672668,180.175018 34.845379,180.674652 
	C32.378395,181.660141 30.080442,182.331055 27.391975,183.000275 
	C26.228703,181.699081 25.455944,180.399597 24.349155,179.042694 
	C23.417875,177.540497 22.820625,176.095749 21.844124,173.733597 
	C24.201180,173.482407 26.124388,173.277466 28.587002,173.456436 
	C31.120640,174.392822 33.169209,175.544220 35.097454,175.369293 
	C38.770790,175.036057 42.375431,173.945572 46.319592,173.040894 
	C47.076481,172.901642 47.522366,172.891006 48.117950,173.193573 
	C52.267662,175.217529 54.900486,173.964645 56.107925,169.616119 
	C56.803707,169.238922 57.341530,169.096573 58.253990,168.967255 
	C59.373032,168.252441 60.117435,167.524597 60.876980,166.843903 
	C60.892120,166.891068 60.794373,166.874954 61.059708,166.800858 
	C61.519554,166.427750 61.714069,166.128738 61.916298,165.860199 
	C61.924015,165.890656 61.876495,165.848160 62.264862,165.890518 
	C66.232475,165.686279 66.770607,163.213242 66.752815,160.333206 
	C66.752815,160.333206 66.745056,160.119522 67.221695,160.051086 
	C68.807823,158.585693 70.516815,157.338699 70.910973,155.762833 
	C71.964424,151.550980 72.453430,147.197937 73.443436,143.055695 
	C75.074196,143.818298 76.428253,144.426224 77.782303,145.034149 
	C77.782303,153.815048 77.782303,162.595963 77.782303,171.711502 
	C83.684601,171.711502 89.069801,171.711502 94.906212,171.711502 
	C94.906212,155.329849 94.906212,138.864304 94.906212,122.398758 
	C95.180412,122.338318 95.454605,122.277870 95.728806,122.217422 
	C100.883987,132.877838 106.039169,143.538269 111.215645,154.572418 
z"/>
<path fill="#0A3934" opacity="1.000000" stroke="none" 
	d="
M77.002762,102.304504 
	C77.556900,108.605553 77.795128,114.835426 77.610275,121.570282 
	C75.708519,123.018730 74.229836,123.962196 73.052940,124.713097 
	C68.646156,121.475212 64.536606,118.455711 60.123383,115.213089 
	C58.416626,118.904854 57.194023,121.549385 55.617428,124.174438 
	C54.208527,123.685081 53.153622,123.215195 52.098713,122.745308 
	C50.309959,121.813660 48.521206,120.882004 46.205200,119.620522 
	C42.188110,117.324242 38.698273,115.357780 35.208435,113.391319 
	C34.743103,112.140991 34.277767,110.890663 33.788162,108.960312 
	C33.818756,107.519310 33.873623,106.758331 33.928490,105.997353 
	C33.928490,105.997353 34.209385,105.796082 34.470757,105.439590 
	C35.785500,103.967766 36.838871,102.852425 37.892246,101.737091 
	C40.959686,101.394508 44.027130,101.051926 47.906799,100.802979 
	C52.551910,102.586197 56.384796,104.275757 60.590443,106.129639 
	C62.111233,103.151001 63.881199,99.684319 65.651161,96.217644 
	C65.764496,96.092102 65.877823,95.966568 66.231674,95.435562 
	C66.907097,94.226524 67.341980,93.422958 67.776871,92.619385 
	C70.746857,95.824028 73.716850,99.028679 77.002762,102.304504 
z"/>
<path fill="#F0F7F4" opacity="1.000000" stroke="none" 
	d="
M218.012207,53.970436 
	C195.065826,53.895092 172.119492,53.771168 149.173080,53.755753 
	C114.413963,53.732403 79.654800,53.784546 44.424568,53.849136 
	C45.113754,53.262997 46.273258,52.082256 47.434418,52.080627 
	C103.630341,52.001781 159.826401,52.023666 216.022430,52.052086 
	C216.498810,52.052330 216.975037,52.294064 217.746002,52.953701 
	C218.040665,53.484360 218.012207,53.970436 218.012207,53.970436 
z"/>
<path fill="#FDFDFE" opacity="1.000000" stroke="none" 
	d="
M218.005081,54.311378 
	C218.012207,53.970436 218.040665,53.484360 218.055252,53.241203 
	C218.464996,51.609623 218.860138,50.221199 219.492111,48.000679 
	C220.434387,48.000679 222.291809,48.000679 224.569351,48.001560 
	C224.989471,48.002441 225.477249,48.005890 225.721130,48.003407 
	C226.064209,58.694698 226.163376,69.388474 225.974503,80.624191 
	C225.807449,81.444687 225.928436,81.723236 226.049438,82.001785 
	C226.110687,82.168907 226.171936,82.336029 225.820953,82.876709 
	C224.199860,82.674988 222.941162,82.183495 221.795639,81.501801 
	C220.547638,80.759125 219.404663,79.840012 218.215881,78.997810 
	C218.164322,77.929779 218.112747,76.861748 218.531982,75.375641 
	C219.626343,74.524071 220.779236,74.106239 220.792603,73.654678 
	C220.947052,68.437668 221.032608,63.211590 220.833633,57.999481 
	C220.806931,57.299896 219.113342,56.663940 218.191635,55.998520 
	C218.127075,55.549786 218.062515,55.101051 218.005081,54.311378 
z"/>
<path fill="#F6F9F8" opacity="1.000000" stroke="none" 
	d="
M65.248276,96.167328 
	C63.881199,99.684319 62.111233,103.151001 60.590443,106.129639 
	C56.384796,104.275757 52.551910,102.586197 48.353588,100.765533 
	C49.950264,100.465401 52.278576,99.536201 53.805016,100.271545 
	C58.174038,102.376266 61.198071,102.364136 62.745193,97.069633 
	C62.885757,96.588600 64.119370,96.426979 65.248276,96.167328 
z"/>
<path fill="#163D37" opacity="1.000000" stroke="none" 
	d="
M73.166748,142.901001 
	C72.453430,147.197937 71.964424,151.550980 70.910973,155.762833 
	C70.516815,157.338699 68.807823,158.585693 67.309288,159.989777 
	C66.974258,159.665710 67.028259,159.334518 67.403275,158.557678 
	C68.075264,157.072220 68.426254,156.032425 68.777245,154.992615 
	C68.777245,154.992615 69.067390,154.619583 69.335190,154.165680 
	C69.719139,152.809570 69.835281,151.907364 69.951424,151.005157 
	C70.040253,148.291534 70.129082,145.577911 70.139305,142.071655 
	C69.771515,140.642212 69.482346,140.005402 69.193176,139.368576 
	C69.193176,139.368576 69.227493,139.134186 69.114799,138.691101 
	C68.814377,137.519974 68.626648,136.791931 68.806755,136.141785 
	C70.505310,138.446777 71.836029,140.673889 73.166748,142.901001 
z"/>
<path fill="#F6F9F8" opacity="1.000000" stroke="none" 
	d="
M67.755943,92.278275 
	C67.341980,93.422958 66.907097,94.226524 66.242722,95.182114 
	C63.844109,89.526352 58.831734,88.287628 53.351830,87.029816 
	C53.456127,86.058296 53.715206,85.608444 53.974289,85.158592 
	C58.561199,87.418114 63.148106,89.677643 67.755943,92.278275 
z"/>
<path fill="#163D37" opacity="1.000000" stroke="none" 
	d="
M46.008591,173.169495 
	C42.375431,173.945572 38.770790,175.036057 35.097454,175.369293 
	C33.169209,175.544220 31.120640,174.392822 28.988466,173.489273 
	C28.850525,173.138184 28.959335,173.028671 29.460560,172.927292 
	C32.974728,172.878464 35.987671,172.931030 39.000618,172.983582 
	C40.077938,173.030640 41.155258,173.077682 42.992474,173.089081 
	C44.504444,173.092117 45.256516,173.130814 46.008591,173.169495 
z"/>
<path fill="#F6F9F8" opacity="1.000000" stroke="none" 
	d="
M35.154251,113.803909 
	C38.698273,115.357780 42.188110,117.324242 45.861198,119.582428 
	C41.095726,121.465057 36.266792,118.968750 35.154251,113.803909 
z"/>
<path fill="#F6F9F8" opacity="1.000000" stroke="none" 
	d="
M52.099533,123.113815 
	C53.153622,123.215195 54.208527,123.685081 55.772972,124.464729 
	C58.887188,126.817818 61.491875,128.861145 64.036789,130.960938 
	C63.977013,131.017426 63.853703,131.126266 63.853703,131.126266 
	C59.935917,128.578278 56.018131,126.030304 52.099533,123.113815 
z"/>
<path fill="#F6F9F8" opacity="1.000000" stroke="none" 
	d="
M38.944500,172.641403 
	C35.987671,172.931030 32.974728,172.878464 29.512642,172.870331 
	C27.854687,172.460510 26.645872,172.006302 25.200855,171.326843 
	C29.605898,171.500824 34.247139,171.900009 38.944500,172.641403 
z"/>
<path fill="#163D37" opacity="1.000000" stroke="none" 
	d="
M55.949966,169.850952 
	C54.900486,173.964645 52.267662,175.217529 48.284260,172.996292 
	C48.925926,172.213455 49.550976,171.941132 50.176025,171.668793 
	C51.350456,171.326614 52.524891,170.984436 54.243866,170.359009 
	C55.175594,170.000839 55.562778,169.925888 55.949966,169.850952 
z"/>
<path fill="#F6F9F8" opacity="1.000000" stroke="none" 
	d="
M68.438927,136.063904 
	C68.626648,136.791931 68.814377,137.519974 69.017380,138.623718 
	C67.339455,136.622437 65.646263,134.245438 63.903389,131.497345 
	C63.853703,131.126266 63.977013,131.017426 64.331299,131.085388 
	C65.936699,132.790207 67.187813,134.427048 68.438927,136.063904 
z"/>
<path fill="#F6F9F8" opacity="1.000000" stroke="none" 
	d="
M56.107925,169.616119 
	C55.562778,169.925888 55.175594,170.000839 54.489578,170.085114 
	C53.111168,167.007385 53.111168,167.007385 58.718925,167.352661 
	C58.648827,168.089920 58.264091,168.522064 57.879356,168.954224 
	C57.341530,169.096573 56.803707,169.238922 56.107925,169.616119 
z"/>
<path fill="#163D37" opacity="1.000000" stroke="none" 
	d="
M66.474838,160.507874 
	C66.770607,163.213242 66.232475,165.686279 62.399933,165.621338 
	C62.762188,164.539093 63.377739,163.768402 63.993294,162.997711 
	C64.727814,162.225998 65.462334,161.454269 66.474838,160.507874 
z"/>
<path fill="#F6F9F8" opacity="1.000000" stroke="none" 
	d="
M50.041260,171.337646 
	C49.550976,171.941132 48.925926,172.213455 48.134567,172.683075 
	C47.522366,172.891006 47.076481,172.901642 46.319592,173.040894 
	C45.256516,173.130814 44.504444,173.092117 43.382431,172.971313 
	C45.310493,172.261627 47.608494,171.634048 50.041260,171.337646 
z"/>
<path fill="#F6F9F8" opacity="1.000000" stroke="none" 
	d="
M39.831848,147.152863 
	C41.232414,148.047531 42.385933,149.129196 43.415565,150.596680 
	C42.056053,149.768265 40.820427,148.554047 39.831848,147.152863 
z"/>
<path fill="#F6F9F8" opacity="1.000000" stroke="none" 
	d="
M45.881004,138.957275 
	C44.703129,138.777130 43.535679,138.215866 42.163273,137.402893 
	C42.511517,136.492996 43.064713,135.834824 43.617912,135.176636 
	C44.375751,136.309814 45.133587,137.442993 45.881004,138.957275 
z"/>
<path fill="#F6F9F8" opacity="1.000000" stroke="none" 
	d="
M63.696915,162.871841 
	C63.377739,163.768402 62.762188,164.539093 62.011566,165.578979 
	C61.876495,165.848160 61.924015,165.890656 61.642807,165.920227 
	C61.172527,166.258179 60.983452,166.566559 60.794373,166.874954 
	C60.794373,166.874954 60.892120,166.891068 60.657497,166.855774 
	C60.422874,166.820496 59.988430,166.753281 59.988430,166.753281 
	C60.493103,164.878784 59.676922,161.879623 63.696915,162.871841 
z"/>
<path fill="#F6F9F8" opacity="1.000000" stroke="none" 
	d="
M21.182350,125.169815 
	C21.148430,124.587944 21.330236,124.356918 21.788904,124.092049 
	C22.985971,125.129417 23.979465,126.258316 24.960464,127.760193 
	C23.740238,127.243103 22.532513,126.353035 21.182350,125.169815 
z"/>
<path fill="#F0F7F4" opacity="1.000000" stroke="none" 
	d="
M53.696426,85.009148 
	C53.715206,85.608444 53.456127,86.058296 53.098801,86.749130 
	C52.032658,86.378433 51.064758,85.766739 49.991676,84.791565 
	C51.063850,84.571953 52.241211,84.715828 53.696426,85.009148 
z"/>
<path fill="#F6F9F8" opacity="1.000000" stroke="none" 
	d="
M43.320736,76.995163 
	C43.719700,77.742043 43.782711,78.506874 43.752831,79.647232 
	C42.842442,79.625549 42.024937,79.228348 41.207436,78.831139 
	C41.799885,78.225121 42.392338,77.619110 43.320736,76.995163 
z"/>
<path fill="#F0F7F4" opacity="1.000000" stroke="none" 
	d="
M43.943909,83.498840 
	C45.147903,83.473175 46.367527,83.746773 47.847431,84.171021 
	C47.925907,84.745361 47.744110,85.169060 46.985023,85.669128 
	C45.606251,85.496437 44.804768,85.247383 44.003284,84.998322 
	C43.988701,84.598251 43.974121,84.198174 43.943909,83.498840 
z"/>
<path fill="#F6F9F8" opacity="1.000000" stroke="none" 
	d="
M37.486519,101.543060 
	C36.838871,102.852425 35.785500,103.967766 34.445274,105.268700 
	C34.029640,103.300766 33.884602,101.135651 37.486519,101.543060 
z"/>
<path fill="#F6F9F8" opacity="1.000000" stroke="none" 
	d="
M42.973408,153.138275 
	C43.478424,153.703400 43.679211,154.448517 43.989037,155.471191 
	C43.578987,155.980545 43.059902,156.212357 42.540813,156.444168 
	C42.583599,155.402206 42.626385,154.360229 42.973408,153.138275 
z"/>
<path fill="#F6F9F8" opacity="1.000000" stroke="none" 
	d="
M33.616116,106.040756 
	C33.873623,106.758331 33.818756,107.519310 33.657242,108.647781 
	C33.468307,108.038231 33.386024,107.061188 33.616116,106.040756 
z"/>
<path fill="#F6F9F8" opacity="1.000000" stroke="none" 
	d="
M44.047440,85.322433 
	C44.804768,85.247383 45.606251,85.496437 46.701447,85.870972 
	C46.027302,85.879822 45.059448,85.763184 44.047440,85.322433 
z"/>
<path fill="#163D37" opacity="1.000000" stroke="none" 
	d="
M59.844910,166.918945 
	C59.988430,166.753281 60.422874,166.820496 60.642357,166.808624 
	C60.117435,167.524597 59.373032,168.252441 58.253990,168.967255 
	C58.264091,168.522064 58.648827,168.089920 59.149002,167.388824 
	C59.264450,167.119858 59.701393,167.084595 59.844910,166.918945 
z"/>
<path fill="#F6F9F8" opacity="1.000000" stroke="none" 
	d="
M18.923817,168.609131 
	C17.947077,168.580231 16.893604,168.173508 15.647881,167.473297 
	C16.586111,167.530319 17.716599,167.880814 18.923817,168.609131 
z"/>
<path fill="#F6F9F8" opacity="1.000000" stroke="none" 
	d="
M68.420952,155.084167 
	C68.426254,156.032425 68.075264,157.072220 67.444901,158.303467 
	C67.465225,157.388519 67.764946,156.282104 68.420952,155.084167 
z"/>
<path fill="#F6F9F8" opacity="1.000000" stroke="none" 
	d="
M29.899841,130.961182 
	C29.344282,131.048721 28.795570,130.822128 28.113499,130.324783 
	C28.622320,130.251709 29.264505,130.449387 29.899841,130.961182 
z"/>
<path fill="#F6F9F8" opacity="1.000000" stroke="none" 
	d="
M32.024429,86.350525 
	C32.425179,86.042786 32.877514,86.025764 33.669334,86.009811 
	C33.364555,86.221001 32.720287,86.431129 32.024429,86.350525 
z"/>
<path fill="#F6F9F8" opacity="1.000000" stroke="none" 
	d="
M48.157982,155.166641 
	C48.408901,154.543091 48.846493,154.164810 49.577347,153.721466 
	C49.361961,154.241577 48.853310,154.826736 48.157982,155.166641 
z"/>
<path fill="#F6F9F8" opacity="1.000000" stroke="none" 
	d="
M69.692314,151.231445 
	C69.835281,151.907364 69.719139,152.809570 69.330246,153.929443 
	C69.182732,153.250656 69.307968,152.354187 69.692314,151.231445 
z"/>
<path fill="#F6F9F8" opacity="1.000000" stroke="none" 
	d="
M69.148392,139.732300 
	C69.482346,140.005402 69.771515,140.642212 69.999496,141.636383 
	C69.660072,141.361160 69.381836,140.728607 69.148392,139.732300 
z"/>
<path fill="#F0F7F4" opacity="1.000000" stroke="none" 
	d="
M43.760353,54.056179 
	C43.912903,54.144505 43.913948,54.315029 43.830685,54.726994 
	C43.633747,54.783436 43.499485,54.606861 43.422119,54.408131 
	C43.399914,54.351089 43.542061,54.230068 43.760353,54.056179 
z"/>
<path fill="#0A2D2A" opacity="1.000000" stroke="none" 
	d="
M219.008179,154.614380 
	C218.595505,153.667877 217.828812,152.249252 217.818863,150.825348 
	C217.693268,132.845139 217.676773,114.864166 217.752426,96.425140 
	C218.249619,97.823776 218.945511,99.679138 218.954407,101.537796 
	C219.038361,119.071480 219.005203,136.605728 219.008179,154.614380 
z"/>
<path fill="#FDFDFD" opacity="1.000000" stroke="none" 
	d="
M218.147308,79.326279 
	C219.404663,79.840012 220.547638,80.759125 221.795639,81.501801 
	C222.941162,82.183495 224.199860,82.674988 225.717896,83.123009 
	C226.107529,84.392799 226.187958,85.789856 225.695663,87.594604 
	C223.600525,88.159737 222.078125,88.317184 220.557602,88.459312 
	C220.559479,88.443993 220.532150,88.430305 220.662399,88.032478 
	C219.931183,85.417946 219.069702,83.201241 218.208237,80.984528 
	C218.165070,80.541267 218.121902,80.098015 218.147308,79.326279 
z"/>
<path fill="#F0F7F4" opacity="1.000000" stroke="none" 
	d="
M220.555725,88.474632 
	C222.078125,88.317184 223.600525,88.159737 225.585007,88.002464 
	C226.199524,90.112434 226.351959,92.222237 226.504395,94.332031 
	C226.010696,94.767555 225.516998,95.203079 225.023300,95.638603 
	C224.525635,94.553284 224.027969,93.467972 223.171371,91.925011 
	C222.060211,90.469788 221.307968,89.472206 220.555725,88.474632 
z"/>
<path fill="#0A2D2A" opacity="1.000000" stroke="none" 
	d="
M220.557602,88.459312 
	C221.307968,89.472206 222.060211,90.469788 222.890503,91.773438 
	C221.485138,92.646965 220.001694,93.214409 218.185913,93.911774 
	C217.775772,91.890190 217.697983,89.738693 218.012238,87.196198 
	C218.608017,86.830162 218.811722,86.855125 219.152222,87.121658 
	C219.703400,87.718910 220.117767,88.074608 220.532150,88.430305 
	C220.532150,88.430305 220.559479,88.443993 220.557602,88.459312 
z"/>
<path fill="#0A2D2A" opacity="1.000000" stroke="none" 
	d="
M232.734009,154.747742 
	C229.965668,155.117752 226.922760,155.189896 223.434753,155.156586 
	C226.146240,154.850708 229.302856,154.650299 232.734009,154.747742 
z"/>
<path fill="#0A2D2A" opacity="1.000000" stroke="none" 
	d="
M242.467987,153.012695 
	C242.883057,153.220688 242.957367,153.436386 243.248367,153.917297 
	C242.556366,154.543579 241.647644,154.904633 240.366943,155.156891 
	C240.705719,154.372208 241.416473,153.696304 242.467987,153.012695 
z"/>
<path fill="#F0F7F4" opacity="1.000000" stroke="none" 
	d="
M226.149628,81.749367 
	C225.928436,81.723236 225.807449,81.444687 225.862762,81.081253 
	C226.109329,81.163231 226.179581,81.330093 226.149628,81.749367 
z"/>
<path fill="#163D37" opacity="1.000000" stroke="none" 
	d="
M37.369095,179.943817 
	C39.549118,176.827759 42.339233,178.192139 44.468819,180.015884 
	C45.335979,180.758484 44.763565,183.182098 44.495148,184.924988 
	C43.978523,183.715775 43.812866,182.422455 43.614883,180.876694 
	C41.607735,180.605057 39.678364,180.343933 37.369095,179.943817 
z"/>
<path fill="#163D37" opacity="1.000000" stroke="none" 
	d="
M44.051666,188.440079 
	C44.433971,190.043884 44.721928,192.075958 45.017662,194.512207 
	C45.025436,194.916367 44.588055,194.964035 44.368629,194.979568 
	C44.085243,192.952850 44.021278,190.910614 44.051666,188.440079 
z"/>
<path fill="#F0F7F4" opacity="1.000000" stroke="none" 
	d="
M220.662399,88.032478 
	C220.117767,88.074608 219.703400,87.718910 219.048035,86.780945 
	C218.359772,86.127106 217.912476,86.055534 217.465179,85.983955 
	C217.061172,85.829193 216.657150,85.674423 216.136749,85.330475 
	C216.701492,84.011497 217.382645,82.881691 218.136017,81.368210 
	C219.069702,83.201241 219.931183,85.417946 220.662399,88.032478 
z"/>
<path fill="#F0F7F4" opacity="1.000000" stroke="none" 
	d="
M200.719254,88.915337 
	C200.703293,87.726021 200.995331,86.437881 201.651947,85.161896 
	C201.686798,86.388199 201.357025,87.602356 200.719254,88.915337 
z"/>
<path fill="#7AB69E" opacity="1.000000" stroke="none" 
	d="
M217.475922,86.192871 
	C217.912476,86.055534 218.359772,86.127106 218.911255,86.539383 
	C218.811722,86.855125 218.608017,86.830162 218.103348,86.740730 
	C217.802399,86.676262 217.486649,86.401779 217.475922,86.192871 
z"/>
<path fill="#183E37" opacity="1.000000" stroke="none" 
	d="
M122.898117,124.949112 
	C122.473351,127.482773 121.700020,129.930923 120.614746,133.366592 
	C113.041733,119.177383 105.985481,105.956406 98.969223,92.370308 
	C100.193123,92.927002 101.708298,93.624374 102.508812,94.805931 
	C109.263062,104.775017 115.886673,114.832611 122.898117,124.949112 
z"/>
<path fill="#FDFDFD" opacity="1.000000" stroke="none" 
	d="
M218.117279,56.461926 
	C219.113342,56.663940 220.806931,57.299896 220.833633,57.999481 
	C221.032608,63.211590 220.947052,68.437668 220.792603,73.654678 
	C220.779236,74.106239 219.626343,74.524071 218.603470,74.979553 
	C218.150421,68.976135 218.096664,62.950733 218.117279,56.461926 
z"/>
<path fill="#266A57" opacity="1.000000" stroke="none" 
	d="
M68.806755,136.141785 
	C67.187813,134.427048 65.936699,132.790207 64.391068,131.028900 
	C61.491875,128.861145 58.887188,126.817818 56.126961,124.484200 
	C57.194023,121.549385 58.416626,118.904854 60.123383,115.213089 
	C64.536606,118.455711 68.646156,121.475212 73.052940,124.713097 
	C74.229836,123.962196 75.708519,123.018730 77.522263,122.030357 
	C77.903336,129.361954 77.949364,136.738464 77.888840,144.574554 
	C76.428253,144.426224 75.074196,143.818298 73.443443,143.055695 
	C71.836029,140.673889 70.505310,138.446777 68.806755,136.141785 
z"/>
<path fill="#163D37" opacity="1.000000" stroke="none" 
	d="
M61.059708,166.800858 
	C60.983452,166.566559 61.172527,166.258179 61.635094,165.889771 
	C61.714069,166.128738 61.519554,166.427750 61.059708,166.800858 
z"/>
</svg>